<?xml version="1.0" encoding="UTF-8" standalone="no"?>
<!-- Created with Inkscape (http://www.inkscape.org/) -->

<svg
   xmlns:dc="http://purl.org/dc/elements/1.1/"
   xmlns:cc="http://creativecommons.org/ns#"
   xmlns:rdf="http://www.w3.org/1999/02/22-rdf-syntax-ns#"
   xmlns:svg="http://www.w3.org/2000/svg"
   xmlns="http://www.w3.org/2000/svg"
   xmlns:sodipodi="http://sodipodi.sourceforge.net/DTD/sodipodi-0.dtd"
   xmlns:inkscape="http://www.inkscape.org/namespaces/inkscape"
   width="174.46689"
   height="174.46689"
   viewBox="0 0 174.46689 174.46689"
   id="svg2"
   version="1.1"
   inkscape:version="0.92.2 5c3e80d, 2017-08-06"
   sodipodi:docname="logo.svg"
   inkscape:export-filename="./argbash.png"
   inkscape:export-xdpi="77.378578"
   inkscape:export-ydpi="77.378578">
  <defs
     id="defs4">
    <clipPath
       id="clip1">
      <path
         inkscape:connector-curvature="0"
         d="M 0,0 H 152.46875 V 105.91016 H 0 Z m 0,0"
         id="path2" />
    </clipPath>
  </defs>
  <sodipodi:namedview
     id="base"
     pagecolor="#ffffff"
     bordercolor="#666666"
     borderopacity="1.0"
     inkscape:pageopacity="0.0"
     inkscape:pageshadow="2"
     inkscape:zoom="1.2953747"
     inkscape:cx="125.99233"
     inkscape:cy="-28.494114"
     inkscape:document-units="px"
     inkscape:current-layer="layer1"
     showgrid="false"
     inkscape:window-width="1440"
     inkscape:window-height="836"
     inkscape:window-x="0"
     inkscape:window-y="27"
     inkscape:window-maximized="1"
     fit-margin-top="0"
     fit-margin-left="0"
     fit-margin-right="0"
     fit-margin-bottom="0"
     units="px"
     showborder="true" />
  <metadata
     id="metadata7">
    <rdf:RDF>
      <cc:Work
         rdf:about="">
        <dc:format>image/svg+xml</dc:format>
        <dc:type
           rdf:resource="http://purl.org/dc/dcmitype/StillImage" />
        <dc:title />
      </cc:Work>
    </rdf:RDF>
  </metadata>
  <g
     inkscape:label="Layer 1"
     inkscape:groupmode="layer"
     id="layer1"
     transform="translate(-41.481575,-744.84164)">
    <text
       xml:space="preserve"
       style="font-style:normal;font-weight:normal;line-height:0%;font-family:sans-serif;letter-spacing:0px;word-spacing:0px;fill:#000000;fill-opacity:1;stroke:none;stroke-width:1px;stroke-linecap:butt;stroke-linejoin:miter;stroke-opacity:1"
       x="766.2124"
       y="404.336"
       id="text3347"
       transform="rotate(18.242448)"><tspan
         sodipodi:role="line"
         id="tspan3349"
         x="766.2124"
         y="404.336"
         style="font-size:65.87837219px;line-height:1.25;font-family:sans-serif">args</tspan></text>
    <path
       inkscape:connector-curvature="0"
       id="path3402"
       style="font-style:normal;font-weight:normal;font-size:medium;line-height:125%;font-family:Sans;letter-spacing:0px;word-spacing:0px;fill:#000000;fill-opacity:1;stroke:none;stroke-width:1px;stroke-linecap:butt;stroke-linejoin:miter;stroke-opacity:1"
       d="m 575.23301,840.74035 q -6.81279,-2.24553 -9.95365,-1.55343 -3.14087,0.69208 -4.37941,4.4498 -0.98685,2.99395 0.38432,5.41032 1.41182,2.39589 4.80292,3.51364 4.67424,1.54063 8.57239,-0.83243 3.93881,-2.39351 5.75132,-7.89259 l 0.41284,-1.25259 -5.59073,-1.84272 z m 11.97729,1.3737 -6.43442,19.52171 -5.62133,-1.85277 1.71189,-5.19359 q -2.95178,2.48173 -6.31703,3.03222 -3.35505,0.51997 -7.5099,-0.84964 -5.25468,-1.73194 -7.40417,-5.69188 -2.10877,-3.9804 -0.47744,-8.92957 1.90316,-5.77402 6.7192,-7.43815 4.84656,-1.654 12.51474,0.8735 l 7.88199,2.59793 0.18146,-0.54993 q 1.27886,-3.87988 -0.5926,-6.83375 -1.83082,-2.97429 -6.44395,-4.49475 -2.93291,-0.96669 -5.94456,-1.1804 -3.01165,-0.21365 -6.0411,0.34612 l 1.71183,-5.19365 q 3.4783,-0.17426 6.57192,0.20199 3.10368,0.34556 5.85326,1.25188 7.42371,2.44692 9.82102,7.50457 2.39732,5.05771 -0.18037,12.87869 z" />
    <path
       inkscape:connector-curvature="0"
       id="path3404"
       style="font-style:normal;font-weight:normal;font-size:medium;line-height:125%;font-family:Sans;letter-spacing:0px;word-spacing:0px;fill:#000000;fill-opacity:1;stroke:none;stroke-width:1px;stroke-linecap:butt;stroke-linejoin:miter;stroke-opacity:1"
       d="m 621.75826,843.03548 q -0.76583,-0.862 -1.81562,-1.47901 -1.00918,-0.6375 -2.35342,-1.08061 -4.76585,-1.57083 -8.35917,0.69948 -3.55277,2.24978 -5.46598,8.05438 l -5.94104,18.02472 -5.65181,-1.86283 11.2779,-34.21649 5.65179,1.86287 -1.75206,5.3158 q 2.79902,-2.53216 6.13363,-3.09263 3.34467,-0.59107 7.40789,0.74817 0.58046,0.19171 1.25296,0.51457 0.68246,0.29281 1.48763,0.72718 l -1.87247,5.78416 z" />
    <path
       inkscape:connector-curvature="0"
       id="path3406"
       style="font-style:normal;font-weight:normal;font-size:medium;line-height:125%;font-family:Sans;letter-spacing:0px;word-spacing:0px;fill:#000000;fill-opacity:1;stroke:none;stroke-width:1px;stroke-linecap:butt;stroke-linejoin:miter;stroke-opacity:1"
       d="m 645.35537,863.51432 q 2.01389,-6.11011 0.58585,-10.30646 -1.39744,-4.18627 -5.94951,-5.68667 -4.52146,-1.49026 -8.16478,1.03454 -3.61278,2.53485 -5.62671,8.64496 -2.0038,6.07954 -0.6064,10.26577 1.42809,4.19635 5.94955,5.68664 4.55202,1.50035 8.16479,-1.0345 3.64336,-2.52473 5.64721,-8.60428 z m 1.25113,15.11162 q -2.87994,8.7375 -8.15953,11.70515 -5.28959,2.99821 -13.2939,0.3601 -2.96335,-0.97675 -5.43967,-2.30073 -2.48634,-1.2939 -4.65895,-3.02589 l 1.80246,-5.4685 q 2.03159,2.15986 4.23359,3.59688 2.20206,1.43711 4.70715,2.2628 5.52962,1.82254 9.23577,-0.17343 3.69609,-1.96543 5.61937,-7.80054 l 0.91635,-2.78016 q -2.73821,2.45057 -5.95069,3.05133 -3.21237,0.60074 -7.00062,-0.64784 -6.29338,-2.07433 -8.56184,-8.13949 -2.26845,-6.06523 0.33963,-13.97776 2.61806,-7.94314 8.04836,-11.47081 5.43032,-3.52766 11.7237,-1.45334 3.78825,1.24867 6.01379,3.6418 2.22565,2.39318 2.97011,5.99163 l 1.71181,-5.19359 5.62134,1.85284 -9.87828,29.96996 z" />
    <path
       inkscape:connector-curvature="0"
       id="path3358"
       style="font-style:normal;font-weight:normal;font-size:medium;line-height:125%;font-family:Sans;letter-spacing:0px;word-spacing:0px;fill:#000000;fill-opacity:1;stroke:none;stroke-width:1px;stroke-linecap:butt;stroke-linejoin:miter;stroke-opacity:1"
       d="m 478.72263,600.14429 q -6.81274,-2.24548 -9.95364,-1.55345 -3.14089,0.69209 -4.37946,4.44981 -0.98685,2.99395 0.38432,5.41031 1.4118,2.3959 4.80291,3.51365 4.67419,1.54062 8.57237,-0.83243 3.93879,-2.39356 5.75128,-7.89259 l 0.41286,-1.25258 -5.59076,-1.84272 z m 11.97731,1.37363 -6.43446,19.52177 -5.62126,-1.85278 1.71179,-5.19358 q -2.95174,2.48174 -6.31689,3.03215 -3.35504,0.51997 -7.50997,-0.84951 -5.25466,-1.73201 -7.40413,-5.6919 -2.10888,-3.98044 -0.47743,-8.92967 1.90316,-5.77402 6.71914,-7.4381 4.84662,-1.65399 12.51476,0.87344 l 7.88206,2.59796 0.18147,-0.5499 q 1.27884,-3.87982 -0.59256,-6.83368 -1.83083,-2.97435 -6.44394,-4.49488 -2.93284,-0.96662 -5.94454,-1.18033 -3.01169,-0.21365 -6.04112,0.34555 l 1.71182,-5.19349 q 3.47832,-0.17426 6.57186,0.20172 3.10372,0.34555 5.85327,1.25185 7.42372,2.44691 9.82106,7.5046 2.39728,5.05775 -0.18035,12.87859 z" />
    <path
       inkscape:connector-curvature="0"
       id="path3360"
       style="font-style:normal;font-weight:normal;font-size:medium;line-height:125%;font-family:Sans;letter-spacing:0px;word-spacing:0px;fill:#000000;fill-opacity:1;stroke:none;stroke-width:1px;stroke-linecap:butt;stroke-linejoin:miter;stroke-opacity:1"
       d="m 473.59448,636.422 q -0.76579,-0.86207 -1.81566,-1.47909 -1.00913,-0.6375 -2.35336,-1.08053 -4.76588,-1.57091 -8.35924,0.69946 -3.55266,2.2498 -5.4659,8.05441 l -5.94105,18.02475 -5.65184,-1.8629 11.27789,-34.21645 5.65191,1.86285 -1.75215,5.31576 q 2.79906,-2.53212 6.13361,-3.0926 3.34471,-0.59106 7.40789,0.74825 0.58046,0.19116 1.25296,0.51455 0.68243,0.29281 1.48767,0.72724 l -1.87248,5.78415 z" />
    <path
       inkscape:connector-curvature="0"
       id="path3362"
       style="font-style:normal;font-weight:normal;font-size:medium;line-height:125%;font-family:Sans;letter-spacing:0px;word-spacing:0px;fill:#000000;fill-opacity:1;stroke:none;stroke-width:1px;stroke-linecap:butt;stroke-linejoin:miter;stroke-opacity:1"
       d="m 433.30454,678.64951 q 2.01387,-6.11011 0.58589,-10.3064 -1.39751,-4.18626 -5.94949,-5.68662 -4.52149,-1.49029 -8.16485,1.03449 -3.61279,2.53481 -5.62671,8.64494 -2.00386,6.07957 -0.60636,10.26578 1.42801,4.19636 5.94953,5.68664 4.55202,1.50038 8.16477,-1.03448 3.64335,-2.52472 5.64722,-8.60435 z m 1.25106,15.11175 q -2.87989,8.73739 -8.15939,11.70512 -5.28973,2.99818 -13.29391,0.36009 -2.96339,-0.97673 -5.43981,-2.30078 -2.48632,-1.29386 -4.65882,-3.02585 l 1.80241,-5.46852 q 2.03152,2.15989 4.23358,3.5969 2.202,1.43708 4.70717,2.26277 5.52965,1.8226 9.2358,-0.17342 3.69604,-1.96551 5.61932,-7.80063 l 0.91635,-2.78013 q -2.73827,2.45055 -5.95065,3.0513 -3.2124,0.60082 -7.00063,-0.64783 -6.29347,-2.07433 -8.56187,-8.1395 -2.2685,-6.06516 0.33963,-13.97778 2.61809,-7.94313 8.04838,-11.47076 5.43024,-3.52769 11.72367,-1.45327 3.78825,1.24856 6.01384,3.6417 2.22555,2.3932 2.97008,5.99163 l 1.71182,-5.19355 5.62126,1.85283 -9.87823,29.96993 z" />
    <g
       id="g3374"
       transform="matrix(5.3825527,0,0,5.3825527,-989.36061,-1848.4527)">
      <path
         d="m 249.40702,463.8264 -2.48657,0 -0.71778,2.85401 2.50366,0 0.70069,-2.85401 z m -1.28174,-4.86206 -0.88867,3.54614 2.49511,0 0.89722,-3.54614 1.36719,0 -0.88013,3.54614 2.66602,0 0,1.31592 -2.99927,0 -0.70068,2.85401 2.71728,0 0,1.30737 -3.05054,0 -0.88867,3.5376 -1.36718,0 0.88012,-3.5376 -2.50366,0 -0.88013,3.5376 -1.37573,0 0.88867,-3.5376 -2.69165,0 0,-1.30737 3.00781,0 0.71778,-2.85401 -2.75147,0 0,-1.31592 3.08472,0 0.87158,-3.54614 1.38428,0 z"
         style="font-style:normal;font-variant:normal;font-weight:normal;font-stretch:normal;font-size:17.5px;line-height:125%;font-family:Terminal;-inkscape-font-specification:'Terminal, Normal';text-align:start;letter-spacing:0px;word-spacing:0px;writing-mode:lr-tb;text-anchor:start;fill:#000000;fill-opacity:1;stroke:none;stroke-width:1px;stroke-linecap:butt;stroke-linejoin:miter;stroke-opacity:1"
         id="path3341"
         inkscape:connector-curvature="0" />
      <path
         d="m 255.20409,453.10227 1.37552,-1.05678 1.32228,1.72112 -1.37553,1.05679 -1.32227,-1.72113 z m -6.45006,-8.39551 1.37553,-1.05679 3.40983,4.43831 1.72297,2.52317 -1.09771,0.84335 -2.0008,-2.30974 -3.40982,-4.4383 z"
         style="font-style:normal;font-variant:normal;font-weight:normal;font-stretch:normal;font-size:17.5px;line-height:125%;font-family:Terminal;-inkscape-font-specification:'Terminal, Normal';text-align:start;letter-spacing:0px;word-spacing:0px;writing-mode:lr-tb;text-anchor:start;fill:#000000;fill-opacity:1;stroke:none;stroke-width:1px;stroke-linecap:butt;stroke-linejoin:miter;stroke-opacity:1"
         id="path3343"
         inkscape:connector-curvature="0" />
      <circle
         r="1.767767"
         cy="454.09937"
         cx="249.25514"
         id="path3351"
         style="fill:none;fill-opacity:1;stroke:#000000;stroke-width:2;stroke-linecap:butt;stroke-linejoin:miter;stroke-miterlimit:4;stroke-dasharray:none;stroke-dashoffset:0;stroke-opacity:1" />
      <path
         sodipodi:nodetypes="cac"
         inkscape:connector-curvature="0"
         id="path3367"
         d="m 252.28559,461.17042 c 0,0 3.53423,0.0261 4.79823,-1.01015 1.48735,-1.21933 2.27284,-5.3033 2.27284,-5.3033"
         style="fill:none;fill-rule:evenodd;stroke:#000000;stroke-width:1px;stroke-linecap:butt;stroke-linejoin:miter;stroke-opacity:1" />
    </g>
    <path
       inkscape:connector-curvature="0"
       id="path3408"
       style="font-style:normal;font-weight:normal;font-size:medium;line-height:125%;font-family:Sans;letter-spacing:0px;word-spacing:0px;fill:#000000;fill-opacity:1;stroke:none;stroke-width:1px;stroke-linecap:butt;stroke-linejoin:miter;stroke-opacity:1"
       d="m 477.49326,675.80543 -1.75214,5.31581 q -1.98018,-2.00747 -4.34501,-3.46431 -2.36483,-1.45689 -5.11436,-2.36315 -4.1854,-1.3795 -6.71633,-0.79119 -2.50035,0.59845 -3.34621,3.16467 -0.64445,1.95516 0.48012,3.57897 1.13446,1.59324 5.32359,4.09171 l 1.78368,1.06226 q 5.56496,3.25677 7.29478,6.4349 1.77042,3.15756 0.39075,7.34297 -1.57084,4.76592 -6.27546,6.29737 -4.67405,1.54153 -11.27295,-0.63353 -2.74951,-0.90627 -5.56222,-2.44299 -2.79219,-1.49607 -5.7392,-3.65283 l 1.91325,-5.80462 q 2.58242,2.64626 5.33501,4.468 2.76271,1.79121 5.72611,2.76797 3.97153,1.30904 6.55316,0.6697 2.59165,-0.66991 3.40725,-3.14447 0.75524,-2.29131 -0.39991,-4.02687 -1.12473,-1.72548 -5.97631,-4.57782 l -1.80423,-1.10244 q -4.86157,-2.82176 -6.43828,-5.84777 -1.56658,-3.05651 -0.2572,-7.02815 1.59096,-4.82689 5.87862,-6.3265 4.28758,-1.49956 10.58101,0.57479 3.1161,1.02706 5.71471,2.39139 2.59843,1.36486 4.61826,3.04635 z" />
    <g
       id="g3452"
       transform="matrix(-5.3825527,0,0,5.3825527,1509.7166,-1857.4922)">
      <path
         inkscape:connector-curvature="0"
         id="path3454"
         style="font-style:normal;font-variant:normal;font-weight:normal;font-stretch:normal;font-size:17.5px;line-height:125%;font-family:Terminal;-inkscape-font-specification:'Terminal, Normal';text-align:start;letter-spacing:0px;word-spacing:0px;writing-mode:lr-tb;text-anchor:start;fill:#000000;fill-opacity:1;stroke:none;stroke-width:1px;stroke-linecap:butt;stroke-linejoin:miter;stroke-opacity:1"
         d="m 249.40702,463.8264 -2.48657,0 -0.71778,2.85401 2.50366,0 0.70069,-2.85401 z m -1.28174,-4.86206 -0.88867,3.54614 2.49511,0 0.89722,-3.54614 1.36719,0 -0.88013,3.54614 2.66602,0 0,1.31592 -2.99927,0 -0.70068,2.85401 2.71728,0 0,1.30737 -3.05054,0 -0.88867,3.5376 -1.36718,0 0.88012,-3.5376 -2.50366,0 -0.88013,3.5376 -1.37573,0 0.88867,-3.5376 -2.69165,0 0,-1.30737 3.00781,0 0.71778,-2.85401 -2.75147,0 0,-1.31592 3.08472,0 0.87158,-3.54614 1.38428,0 z" />
      <path
         inkscape:connector-curvature="0"
         id="path3456"
         style="font-style:normal;font-variant:normal;font-weight:normal;font-stretch:normal;font-size:17.5px;line-height:125%;font-family:Terminal;-inkscape-font-specification:'Terminal, Normal';text-align:start;letter-spacing:0px;word-spacing:0px;writing-mode:lr-tb;text-anchor:start;fill:#000000;fill-opacity:1;stroke:none;stroke-width:1px;stroke-linecap:butt;stroke-linejoin:miter;stroke-opacity:1"
         d="m 255.20409,453.10227 1.37552,-1.05678 1.32228,1.72112 -1.37553,1.05679 -1.32227,-1.72113 z m -6.45006,-8.39551 1.37553,-1.05679 3.40983,4.43831 1.72297,2.52317 -1.09771,0.84335 -2.0008,-2.30974 -3.40982,-4.4383 z" />
      <circle
         style="fill:none;fill-opacity:1;stroke:#000000;stroke-width:2;stroke-linecap:butt;stroke-linejoin:miter;stroke-miterlimit:4;stroke-dasharray:none;stroke-dashoffset:0;stroke-opacity:1"
         id="circle3458"
         cx="249.25514"
         cy="454.09937"
         r="1.767767" />
      <path
         style="fill:none;fill-rule:evenodd;stroke:#000000;stroke-width:1px;stroke-linecap:butt;stroke-linejoin:miter;stroke-opacity:1"
         d="m 252.28559,461.17042 c 0,0 3.53423,0.0261 4.79823,-1.01015 1.48735,-1.21933 2.27284,-5.3033 2.27284,-5.3033"
         id="path3460"
         inkscape:connector-curvature="0"
         sodipodi:nodetypes="cac" />
    </g>
    <g
       id="g4328"
       transform="matrix(5.3209857,0.81177843,-0.81177843,5.3209857,-513.44386,-2271.8547)">
      <path
         inkscape:connector-curvature="0"
         id="path3446"
         style="font-style:normal;font-weight:normal;font-size:medium;line-height:125%;font-family:Sans;letter-spacing:0px;word-spacing:0px;fill:#000000;fill-opacity:1;stroke:none;stroke-width:1px;stroke-linecap:butt;stroke-linejoin:miter;stroke-opacity:1"
         d="m 184.78264,506.98345 q -1.23755,0.49451 -1.60173,0.96823 -0.36416,0.47373 -0.0914,1.15633 0.21731,0.54386 0.70109,0.72382 0.48711,0.17219 1.10312,-0.0739 0.84908,-0.33928 1.12015,-1.14264 0.27439,-0.81114 -0.12475,-1.81005 l -0.0909,-0.22753 -1.01557,0.4058 z m 1.86814,-1.2356 1.41699,3.54617 -1.02111,0.40802 -0.37698,-0.94342 q -0.12343,0.70575 -0.53644,1.18612 -0.4152,0.47483 -1.16995,0.77641 -0.95453,0.38141 -1.73346,0.0748 -0.77561,-0.31433 -1.13482,-1.21339 -0.41911,-1.04886 0.0673,-1.86102 0.49192,-0.81438 1.88485,-1.37098 l 1.43179,-0.57212 -0.0399,-0.0999 q -0.28162,-0.70479 -0.90079,-0.90144 -0.61584,-0.20442 -1.45382,0.13042 -0.53276,0.21288 -0.98677,0.54231 -0.45401,0.32943 -0.81819,0.77095 l -0.37697,-0.94342 q 0.47403,-0.44039 0.95911,-0.75648 0.48285,-0.32166 0.98232,-0.52123 1.34854,-0.53885 2.2939,-0.10571 0.94535,0.43315 1.51305,1.8538 z" />
      <path
         inkscape:connector-curvature="0"
         id="path3448"
         style="font-style:normal;font-weight:normal;font-size:medium;line-height:125%;font-family:Sans;letter-spacing:0px;word-spacing:0px;fill:#000000;fill-opacity:1;stroke:none;stroke-width:1px;stroke-linecap:butt;stroke-linejoin:miter;stroke-opacity:1"
         d="m 188.38744,512.37863 q -0.21195,-0.0312 -0.43503,0.007 -0.21974,0.0299 -0.46392,0.12744 -0.86573,0.34593 -1.1057,1.09826 -0.23665,0.74455 0.18468,1.79897 l 1.30832,3.27424 -1.02667,0.41023 -2.4836,-6.21549 1.02667,-0.41025 0.38584,0.96563 q 0.0957,-0.69468 0.50314,-1.17282 0.40524,-0.48371 1.14333,-0.77863 0.10541,-0.0422 0.23974,-0.0765 0.13208,-0.0399 0.29854,-0.0743 l 0.42468,1.04664 z" />
      <path
         inkscape:connector-curvature="0"
         id="path3450"
         style="font-style:normal;font-weight:normal;font-size:medium;line-height:125%;font-family:Sans;letter-spacing:0px;word-spacing:0px;fill:#000000;fill-opacity:1;stroke:none;stroke-width:1px;stroke-linecap:butt;stroke-linejoin:miter;stroke-opacity:1"
         d="m 194.01407,512.0885 q -0.44351,-1.10991 -1.14804,-1.53631 -0.699,-0.42861 -1.52587,-0.0982 -0.82134,0.32819 -1.03803,1.12269 -0.21114,0.79228 0.23236,1.9022 0.44129,1.10437 1.14028,1.53298 0.70454,0.4264 1.52587,0.0982 0.82689,-0.3304 1.03802,-1.12269 0.21669,-0.7945 -0.22459,-1.89887 z m 1.98351,2.00049 q 0.63421,1.58717 0.23766,2.64018 -0.39436,1.05856 -1.84832,1.63956 -0.53831,0.21511 -1.04882,0.32261 -0.50832,0.11298 -1.02434,0.12613 l -0.39694,-0.99336 q 0.54708,0.0646 1.03207,0.006 0.48498,-0.0586 0.94004,-0.24047 1.00448,-0.40137 1.29329,-1.12814 0.29101,-0.72123 -0.13253,-1.78119 l -0.2018,-0.50502 q -0.0968,0.67581 -0.48204,1.14509 -0.38525,0.46929 -1.0734,0.74426 -1.14321,0.45681 -2.1906,-0.13506 -1.0474,-0.59187 -1.62172,-2.02923 -0.57656,-1.44288 -0.22546,-2.59356 0.35109,-1.15069 1.49431,-1.60749 0.68814,-0.27497 1.29071,-0.20041 0.60257,0.0746 1.13843,0.49758 l -0.37698,-0.94342 1.02112,-0.40801 2.17537,5.4441 z" />
      <path
         inkscape:connector-curvature="0"
         id="path3462"
         style="font-style:normal;font-weight:normal;font-size:medium;line-height:125%;font-family:Sans;letter-spacing:0px;word-spacing:0px;fill:#717171;fill-opacity:1;stroke:none;stroke-width:1px;stroke-linecap:butt;stroke-linejoin:miter;stroke-opacity:1"
         d="m 191.12221,518.65238 0.38585,0.96563 q -0.52157,-0.049 -1.03208,0.0263 -0.51052,0.0753 -1.00997,0.27484 -0.76029,0.3038 -1.05008,0.6899 -0.28423,0.38387 -0.098,0.85004 0.14191,0.35516 0.49592,0.45182 0.35176,0.0911 1.24627,-0.0539 l 0.38068,-0.062 q 1.18085,-0.20154 1.80666,0.0439 0.62915,0.23771 0.93293,0.99801 0.34594,0.86574 -0.14042,1.64572 -0.48081,0.77776 -1.67952,1.25674 -0.49945,0.19957 -1.08322,0.317 -0.576,0.12075 -1.25297,0.16601 l -0.42132,-1.05442 q 0.68358,0.0679 1.29285,-0.002 0.60706,-0.0752 1.14538,-0.29034 0.72143,-0.28827 1.01234,-0.68768 0.28867,-0.40496 0.10905,-0.85447 -0.16631,-0.41622 -0.53801,-0.52512 -0.36618,-0.11111 -1.39721,0.0627 l -0.38841,0.0587 q -1.0288,0.1794 -1.61467,-0.0627 -0.58807,-0.24769 -0.87631,-0.96917 -0.35036,-0.87682 0.0805,-1.60244 0.43083,-0.72562 1.57405,-1.18243 0.56605,-0.22619 1.09876,-0.34256 0.53275,-0.11628 1.02102,-0.11837 z" />
    </g>
    <rect
       style="fill:none;fill-opacity:1;stroke:#000000;stroke-width:9.14961815;stroke-linecap:butt;stroke-linejoin:miter;stroke-miterlimit:4;stroke-dasharray:none;stroke-dashoffset:0;stroke-opacity:1"
       id="rect4279"
       width="198.71396"
       height="198.71396"
       x="27.99877"
       y="513.87079"
       ry="21.374012" />
    <rect
       style="fill:#ffffff;fill-opacity:1;stroke:none;stroke-width:5.53677559;stroke-linecap:butt;stroke-linejoin:miter;stroke-miterlimit:4;stroke-dasharray:none;stroke-dashoffset:0;stroke-opacity:1"
       id="rect3368"
       width="171.55922"
       height="171.55922"
       x="42.93541"
       y="746.29541"
       ry="0" />
    <text
       xml:space="preserve"
       style="font-style:normal;font-variant:normal;font-weight:normal;font-stretch:normal;font-size:155.31469727px;line-height:1.25;font-family:monospace;-inkscape-font-specification:'monospace, Normal';font-variant-ligatures:normal;font-variant-caps:normal;font-variant-numeric:normal;font-feature-settings:normal;text-align:start;letter-spacing:0px;word-spacing:0px;writing-mode:lr-tb;text-anchor:start;fill:#000000;fill-opacity:1;stroke:none;stroke-width:3.88286757"
       x="40.950443"
       y="841.03204"
       id="text3838"><tspan
         sodipodi:role="line"
         id="tspan3836"
         x="40.950443"
         y="841.03204"
         style="fill:#000000;stroke-width:3.88286757">a</tspan></text>
    <rect
       ry="0"
       y="747.14221"
       x="43.782146"
       height="169.86574"
       width="169.86574"
       id="rect4301"
       style="fill:none;fill-opacity:1;stroke:#000000;stroke-width:4.60114288;stroke-linecap:butt;stroke-linejoin:miter;stroke-miterlimit:4;stroke-dasharray:none;stroke-dashoffset:0;stroke-opacity:1;opacity:1" />
    <path
       inkscape:connector-curvature="0"
       style="fill:#e1000a;fill-opacity:1;stroke:none;stroke-opacity:1"
       d="m -37.732181,754.29724 q 0.0112,-1.39028 -0.31789,-2.45721 -0.32926,-1.06695 -0.85072,-1.69772 -0.52146,-0.6308 -1.27274,-1.03175 -0.75128,-0.40093 -1.47323,-0.54416 -0.72195,-0.14323 -1.53934,-0.14989 -0.81738,-0.006 -1.7641,0.4233 -0.946708,0.42998 -1.745928,1.08429 -0.7992,0.65431 -1.36979,1.2247 -0.57058,0.57037 -0.95177,1.04788 -0.28602,0.37528 -0.7733,0.37129 -0.4873,-0.004 -0.76715,-0.3839 -0.37333,-0.48368 -0.93451,-1.0633 -0.56118,-0.57962 -1.34958,-1.24693 -0.78841,-0.66729 -1.72797,-1.11268 -0.93956,-0.44541 -1.75694,-0.45209 -0.81739,-0.006 -1.54158,0.12472 -0.7242,0.1314 -1.48193,0.52 -0.75775,0.38861 -1.28946,1.01079 -0.5317,0.62217 -0.87835,1.68359 -0.34667,1.06141 -0.35804,2.45169 -0.0236,2.88355 2.88963,6.11726 l 9.05413,9.68653 9.195448,-9.52016 q 2.98154,-3.20266 3.00511,-6.08623 z m 2.01204,0.0164 q -0.0311,3.79326 -3.6628,7.69439 l -9.877108,10.21834 q -0.28545,0.30664 -0.69416,0.3033 -0.40869,-0.004 -0.68911,-0.31459 l -9.72414,-10.41295 q -0.15607,-0.1386 -0.42863,-0.44982 -0.27255,-0.31118 -0.86321,-1.13136 -0.59065,-0.82019 -1.05521,-1.68224 -0.46454,-0.86206 -0.82399,-2.08371 -0.35942,-1.22168 -0.35002,-2.37166 0.0309,-3.7761 2.04459,-5.8881 2.0137,-2.11202 5.53474,-2.08323 0.97459,0.007 1.98544,0.38528 1.01086,0.37731 1.87814,1.01094 0.86728,0.63362 1.49155,1.18801 0.62427,0.55438 1.18509,1.17692 0.57094,-0.61327 1.20418,-1.15739 0.63325,-0.5441 1.51078,-1.16346 0.87752,-0.61937 1.894408,-0.9801 1.01688,-0.36074 1.99147,-0.35276 3.52104,0.0288 5.49994,2.17345 1.97893,2.14466 1.94805,5.92074 z"
       id="path4" />
    <rect
       ry="0"
       y="751.53326"
       x="-492.13177"
       height="161.08356"
       width="161.08356"
       id="rect3394"
       style="fill:#ffffff;fill-opacity:1;stroke:none;stroke-width:5.19869184;stroke-linecap:butt;stroke-linejoin:miter;stroke-miterlimit:4;stroke-dasharray:none;stroke-dashoffset:0;stroke-opacity:1" />
    <g
       id="g3396"
       transform="matrix(-4.6011428,0,0,4.6011428,768.92529,-1278.7971)">
      <path
         inkscape:connector-curvature="0"
         id="path3398"
         style="font-style:normal;font-variant:normal;font-weight:normal;font-stretch:normal;font-size:17.5px;line-height:125%;font-family:Terminal;-inkscape-font-specification:'Terminal, Normal';text-align:start;letter-spacing:0px;word-spacing:0px;writing-mode:lr-tb;text-anchor:start;fill:#000000;fill-opacity:1;stroke:none;stroke-width:1px;stroke-linecap:butt;stroke-linejoin:miter;stroke-opacity:1"
         d="m 249.40702,463.8264 -2.48657,0 -0.71778,2.85401 2.50366,0 0.70069,-2.85401 z m -1.28174,-4.86206 -0.88867,3.54614 2.49511,0 0.89722,-3.54614 1.36719,0 -0.88013,3.54614 2.66602,0 0,1.31592 -2.99927,0 -0.70068,2.85401 2.71728,0 0,1.30737 -3.05054,0 -0.88867,3.5376 -1.36718,0 0.88012,-3.5376 -2.50366,0 -0.88013,3.5376 -1.37573,0 0.88867,-3.5376 -2.69165,0 0,-1.30737 3.00781,0 0.71778,-2.85401 -2.75147,0 0,-1.31592 3.08472,0 0.87158,-3.54614 1.38428,0 z" />
      <path
         inkscape:connector-curvature="0"
         id="path3400"
         style="font-style:normal;font-variant:normal;font-weight:normal;font-stretch:normal;font-size:17.5px;line-height:125%;font-family:Terminal;-inkscape-font-specification:'Terminal, Normal';text-align:start;letter-spacing:0px;word-spacing:0px;writing-mode:lr-tb;text-anchor:start;fill:#000000;fill-opacity:1;stroke:none;stroke-width:1px;stroke-linecap:butt;stroke-linejoin:miter;stroke-opacity:1"
         d="m 255.20409,453.10227 1.37552,-1.05678 1.32228,1.72112 -1.37553,1.05679 -1.32227,-1.72113 z m -6.45006,-8.39551 1.37553,-1.05679 3.40983,4.43831 1.72297,2.52317 -1.09771,0.84335 -2.0008,-2.30974 -3.40982,-4.4383 z" />
      <circle
         style="fill:none;fill-opacity:1;stroke:#000000;stroke-width:1.60000002;stroke-linecap:butt;stroke-linejoin:miter;stroke-miterlimit:4;stroke-dasharray:none;stroke-dashoffset:0;stroke-opacity:1"
         id="circle3402"
         cx="249.25514"
         cy="454.09937"
         r="1.767767" />
      <path
         style="fill:none;fill-rule:evenodd;stroke:#000000;stroke-width:1px;stroke-linecap:butt;stroke-linejoin:miter;stroke-opacity:1"
         d="m 252.28559,461.17042 c 0,0 3.53423,0.0261 4.79823,-1.01015 1.48735,-1.21933 2.27284,-5.3033 2.27284,-5.3033"
         id="path3405"
         inkscape:connector-curvature="0"
         sodipodi:nodetypes="cac" />
    </g>
    <g
       transform="matrix(4.6011428,0,0,4.6011428,-1328.9607,-1717.4385)"
       id="g3407">
      <path
         inkscape:connector-curvature="0"
         id="path3409"
         style="font-style:normal;font-weight:normal;font-size:medium;line-height:125%;font-family:Sans;letter-spacing:0px;word-spacing:0px;fill:#000000;fill-opacity:1;stroke:none;stroke-width:1px;stroke-linecap:butt;stroke-linejoin:miter;stroke-opacity:1"
         d="m 187.93937,546.75821 q -1.23755,0.49451 -1.60173,0.96823 -0.36416,0.47373 -0.0914,1.15633 0.21731,0.54386 0.70109,0.72382 0.48711,0.17219 1.10312,-0.0739 0.84908,-0.33928 1.12015,-1.14264 0.27439,-0.81114 -0.12475,-1.81005 l -0.0909,-0.22753 -1.01557,0.4058 z m 1.86814,-1.2356 1.41699,3.54617 -1.02111,0.40802 -0.37698,-0.94342 q -0.12343,0.70575 -0.53644,1.18612 -0.4152,0.47483 -1.16995,0.77641 -0.95453,0.38141 -1.73346,0.0748 -0.77561,-0.31433 -1.13482,-1.21339 -0.41911,-1.04886 0.0673,-1.86102 0.49192,-0.81438 1.88485,-1.37098 l 1.43179,-0.57212 -0.0399,-0.0999 q -0.28162,-0.70479 -0.90079,-0.90144 -0.61584,-0.20442 -1.45382,0.13042 -0.53276,0.21288 -0.98677,0.54231 -0.45401,0.32943 -0.81819,0.77095 l -0.37697,-0.94342 q 0.47403,-0.44039 0.95911,-0.75648 0.48285,-0.32166 0.98232,-0.52123 1.34854,-0.53885 2.2939,-0.10571 0.94535,0.43315 1.51305,1.8538 z" />
      <path
         inkscape:connector-curvature="0"
         id="path3411"
         style="font-style:normal;font-weight:normal;font-size:medium;line-height:125%;font-family:Sans;letter-spacing:0px;word-spacing:0px;fill:#000000;fill-opacity:1;stroke:none;stroke-width:1px;stroke-linecap:butt;stroke-linejoin:miter;stroke-opacity:1"
         d="m 191.54417,552.5322 q -0.21195,-0.0312 -0.43503,0.006 -0.21974,0.0299 -0.46392,0.12744 -0.86573,0.34593 -1.1057,1.09826 -0.23665,0.74455 0.18468,1.79897 l 1.30832,3.27424 -1.02667,0.41023 -2.4836,-6.21549 1.02667,-0.41025 0.38584,0.96563 q 0.0957,-0.69468 0.50314,-1.17282 0.40524,-0.48371 1.14333,-0.77863 0.10541,-0.0422 0.23974,-0.0765 0.13208,-0.0399 0.29854,-0.0743 l 0.42468,1.04664 z" />
      <path
         inkscape:connector-curvature="0"
         id="path3413"
         style="font-style:normal;font-weight:normal;font-size:medium;line-height:125%;font-family:Sans;letter-spacing:0px;word-spacing:0px;fill:#000000;fill-opacity:1;stroke:none;stroke-width:1px;stroke-linecap:butt;stroke-linejoin:miter;stroke-opacity:1"
         d="m 195.15049,562.09105 q -0.44351,-1.10991 -1.14804,-1.53631 -0.699,-0.42861 -1.52587,-0.0982 -0.82134,0.32819 -1.03803,1.12269 -0.21114,0.79228 0.23236,1.9022 0.44129,1.10437 1.14028,1.53298 0.70454,0.4264 1.52587,0.0982 0.82689,-0.3304 1.03802,-1.12269 0.21669,-0.7945 -0.22459,-1.89887 z m 1.98351,2.00049 q 0.63421,1.58717 0.23766,2.64018 -0.39436,1.05856 -1.84832,1.63956 -0.53831,0.21511 -1.04882,0.32261 -0.50832,0.11298 -1.02434,0.12613 l -0.39694,-0.99336 q 0.54708,0.0646 1.03207,0.006 0.48498,-0.0586 0.94004,-0.24047 1.00448,-0.40137 1.29329,-1.12814 0.29101,-0.72123 -0.13253,-1.78119 l -0.2018,-0.50502 q -0.0968,0.67581 -0.48204,1.14509 -0.38525,0.46929 -1.0734,0.74426 -1.14321,0.45681 -2.1906,-0.13506 -1.0474,-0.59187 -1.62172,-2.02923 -0.57656,-1.44288 -0.22546,-2.59356 0.35109,-1.15069 1.49431,-1.60749 0.68814,-0.27497 1.29071,-0.20041 0.60257,0.0746 1.13843,0.49758 l -0.37698,-0.94342 1.02112,-0.40801 2.17537,5.4441 z" />
    </g>
    <rect
       style="fill:none;fill-opacity:1;stroke:#000000;stroke-width:4.60114288;stroke-linecap:butt;stroke-linejoin:miter;stroke-miterlimit:4;stroke-dasharray:none;stroke-dashoffset:0;stroke-opacity:1"
       id="rect3415"
       width="169.86574"
       height="169.86574"
       x="-496.52286"
       y="747.14221"
       ry="0" />
    <rect
       ry="0"
       y="751.53326"
       x="-258.70184"
       height="161.08356"
       width="161.08356"
       id="rect3747"
       style="fill:#ffffff;fill-opacity:1;stroke:none;stroke-width:5.19869184;stroke-linecap:butt;stroke-linejoin:miter;stroke-miterlimit:4;stroke-dasharray:none;stroke-dashoffset:0;stroke-opacity:1" />
    <g
       transform="matrix(1.1808627,0.2924198,-0.29224518,1.1801801,-106.23961,-164.83716)"
       id="g3755">
      <path
         style="fill:none;fill-rule:evenodd;stroke:#395e00;stroke-width:3;stroke-linecap:butt;stroke-linejoin:miter;stroke-miterlimit:4;stroke-dasharray:none;stroke-opacity:1"
         d="m 123.61665,818.00134 c 0,0 15.97816,-19.75732 19.60783,-28.75817 3.62967,-9.00085 3.92157,-23.09368 3.92157,-23.09368"
         id="path3749"
         inkscape:connector-curvature="0"
         sodipodi:nodetypes="czc" />
      <path
         style="fill:#f08bb9;stroke:#f08bb9;stroke-width:0.03551036"
         inkscape:connector-curvature="0"
         d="m 153.59644,776.04296 c 0.0871,0.68518 -0.21961,1.2909 -0.5414,1.85877 -1.89667,-0.45808 -3.42607,-1.93074 -5.42116,-2.08217 -1.64681,0.0758 -2.8961,1.42345 -4.50505,1.62409 -0.92376,-0.2385 -0.68144,-1.45373 -0.71551,-2.18059 0.19308,-2.60081 0.89723,-5.15998 1.90045,-7.56015 -0.11357,-0.15143 -0.2385,-0.31047 -0.37479,-0.47701 -1.79066,2.08974 -4.13786,3.72518 -6.61749,4.90255 -0.75337,0.26504 -2.1806,0.88966 -2.44185,-0.28014 0.0644,-1.76038 0.75715,-3.50939 0.3445,-5.2773 -0.54511,-1.42345 -1.93452,-2.23738 -2.78631,-3.45261 -0.51108,-0.62465 0.2385,-1.30991 0.82525,-1.47266 2.26392,-0.74579 4.67923,-0.82912 7.03775,-0.87072 -1.97241,-1.29469 -4.047,-2.61217 -5.44391,-4.56558 -0.2915,-0.49976 -0.90101,-1.4348 -0.0833,-1.75659 1.63923,-0.61329 3.53967,-0.35211 5.07287,-1.30234 1.32501,-0.92751 1.60894,-2.65381 2.60838,-3.84254 0.48079,-0.60572 1.27201,-0.0719 1.58248,0.41269 1.70359,2.29413 2.56296,5.07291 3.41097,7.76079 0.55272,-2.68414 1.21901,-5.41363 2.60838,-7.80622 0.48075,-0.65494 1.07515,-1.76038 2.04805,-1.30234 1.08273,1.39698 1.44999,3.27468 2.79768,4.47859 1.34015,1.05618 3.18381,0.72304 4.68297,1.38933 0.64362,0.60951 -0.004,1.38558 -0.371,1.94209 -1.43102,1.87399 -3.35418,3.28225 -5.21298,4.69812 2.48349,-0.11357 5.05398,-0.28393 7.4504,0.49968 0.58675,0.23472 1.41587,0.56408 1.07894,1.34394 -1.04487,1.47266 -2.74846,2.45696 -3.42611,4.19462 -0.52997,1.72252 0.68144,3.51318 -0.0265,5.19784 -2.74089,-0.0984 -6.1841,-5.04056 -6.92977,-4.55028 -0.74567,0.49028 1.38388,6.00023 1.44824,8.47615 z"
         id="path3751"
         sodipodi:nodetypes="cccccccccccccccccccccccccccccccc" />
      <circle
         style="opacity:0.83300003;fill:#ecef90;fill-opacity:1;stroke:none;stroke-width:3;stroke-linecap:butt;stroke-linejoin:miter;stroke-miterlimit:4;stroke-dasharray:none;stroke-dashoffset:0;stroke-opacity:1"
         id="circle3753"
         cx="148.70299"
         cy="763.09802"
         r="4.3135052" />
    </g>
    <path
       d="m -146.4345,865.80998 h 11.44106 l 3.30261,13.13171 h -11.5197 z m 5.89746,-22.37103 4.0889,16.31629 h -11.48036 l -4.12823,-16.31629 h -6.29064 l 4.0496,16.31629 h -12.26673 v 6.05474 h 13.80007 l 3.22392,13.13171 h -12.50259 v 6.01539 h 14.03597 l 4.0889,16.27701 h 6.29059 l -4.04956,-16.27701 h 11.5197 l 4.0496,16.27701 h 6.32993 l -4.0889,-16.27701 h 12.38467 v -6.01539 h -13.83936 l -3.30261,-13.13171 h 12.65991 v -6.05474 h -14.19324 l -4.01027,-16.31629 z"
       style="font-style:normal;font-variant:normal;font-weight:normal;font-stretch:normal;font-size:17.5px;line-height:125%;font-family:Terminal;-inkscape-font-specification:'Terminal, Normal';text-align:start;letter-spacing:0px;word-spacing:0px;writing-mode:lr-tb;text-anchor:start;fill:#000000;fill-opacity:1;stroke:none;stroke-width:1px;stroke-linecap:butt;stroke-linejoin:miter;stroke-opacity:1"
       id="path3757"
       inkscape:connector-curvature="0" />
    <path
       d="m -114.51768,839.98267 -7.70593,-2.07786 -2.59984,9.642 7.70598,2.07789 z m 12.6822,-47.03318 -7.70598,-2.07789 -6.70443,24.8642 -2.89496,13.75668 6.14958,1.65823 4.45139,-13.33708 z"
       style="font-style:normal;font-variant:normal;font-weight:normal;font-stretch:normal;font-size:17.5px;line-height:125%;font-family:Terminal;-inkscape-font-specification:'Terminal, Normal';text-align:start;letter-spacing:0px;word-spacing:0px;writing-mode:lr-tb;text-anchor:start;fill:#000000;fill-opacity:1;stroke:none;stroke-width:1px;stroke-linecap:butt;stroke-linejoin:miter;stroke-opacity:1"
       id="path3759"
       inkscape:connector-curvature="0" />
    <circle
       transform="scale(-1,1)"
       r="8.1337481"
       cy="821.0545"
       cx="145.7357"
       id="circle3761"
       style="fill:none;fill-opacity:1;stroke:#000000;stroke-width:7.3618288;stroke-linecap:butt;stroke-linejoin:miter;stroke-miterlimit:4;stroke-dasharray:none;stroke-dashoffset:0;stroke-opacity:1" />
    <path
       sodipodi:nodetypes="cac"
       inkscape:connector-curvature="0"
       id="path3763"
       d="m -159.67922,853.58944 c 0,0 -16.26149,0.12009 -22.07734,-4.64785 -6.84351,-5.61031 -10.45766,-24.40124 -10.45766,-24.40124"
       style="fill:none;fill-rule:evenodd;stroke:#000000;stroke-width:4.60114288px;stroke-linecap:butt;stroke-linejoin:miter;stroke-opacity:1" />
    <g
       transform="matrix(4.5670132,0.55937962,-0.55937962,4.5670132,-784.08347,-1807.0311)"
       id="g3771">
      <path
         inkscape:connector-curvature="0"
         id="path3765"
         style="font-style:normal;font-weight:normal;font-size:medium;line-height:125%;font-family:Sans;letter-spacing:0px;word-spacing:0px;fill:#000000;fill-opacity:1;stroke:none;stroke-width:1px;stroke-linecap:butt;stroke-linejoin:miter;stroke-opacity:1"
         d="m 187.93937,546.75821 q -1.23755,0.49451 -1.60173,0.96823 -0.36416,0.47373 -0.0914,1.15633 0.21731,0.54386 0.70109,0.72382 0.48711,0.17219 1.10312,-0.0739 0.84908,-0.33928 1.12015,-1.14264 0.27439,-0.81114 -0.12475,-1.81005 l -0.0909,-0.22753 -1.01557,0.4058 z m 1.86814,-1.2356 1.41699,3.54617 -1.02111,0.40802 -0.37698,-0.94342 q -0.12343,0.70575 -0.53644,1.18612 -0.4152,0.47483 -1.16995,0.77641 -0.95453,0.38141 -1.73346,0.0748 -0.77561,-0.31433 -1.13482,-1.21339 -0.41911,-1.04886 0.0673,-1.86102 0.49192,-0.81438 1.88485,-1.37098 l 1.43179,-0.57212 -0.0399,-0.0999 q -0.28162,-0.70479 -0.90079,-0.90144 -0.61584,-0.20442 -1.45382,0.13042 -0.53276,0.21288 -0.98677,0.54231 -0.45401,0.32943 -0.81819,0.77095 l -0.37697,-0.94342 q 0.47403,-0.44039 0.95911,-0.75648 0.48285,-0.32166 0.98232,-0.52123 1.34854,-0.53885 2.2939,-0.10571 0.94535,0.43315 1.51305,1.8538 z" />
      <path
         inkscape:connector-curvature="0"
         id="path3767"
         style="font-style:normal;font-weight:normal;font-size:medium;line-height:125%;font-family:Sans;letter-spacing:0px;word-spacing:0px;fill:#000000;fill-opacity:1;stroke:none;stroke-width:1px;stroke-linecap:butt;stroke-linejoin:miter;stroke-opacity:1"
         d="m 191.54417,552.5322 q -0.21195,-0.0312 -0.43503,0.006 -0.21974,0.0299 -0.46392,0.12744 -0.86573,0.34593 -1.1057,1.09826 -0.23665,0.74455 0.18468,1.79897 l 1.30832,3.27424 -1.02667,0.41023 -2.4836,-6.21549 1.02667,-0.41025 0.38584,0.96563 q 0.0957,-0.69468 0.50314,-1.17282 0.40524,-0.48371 1.14333,-0.77863 0.10541,-0.0422 0.23974,-0.0765 0.13208,-0.0399 0.29854,-0.0743 l 0.42468,1.04664 z" />
      <path
         inkscape:connector-curvature="0"
         id="path3769"
         style="font-style:normal;font-weight:normal;font-size:medium;line-height:125%;font-family:Sans;letter-spacing:0px;word-spacing:0px;fill:#000000;fill-opacity:1;stroke:none;stroke-width:1px;stroke-linecap:butt;stroke-linejoin:miter;stroke-opacity:1"
         d="m 195.15049,562.09105 q -0.44351,-1.10991 -1.14804,-1.53631 -0.699,-0.42861 -1.52587,-0.0982 -0.82134,0.32819 -1.03803,1.12269 -0.21114,0.79228 0.23236,1.9022 0.44129,1.10437 1.14028,1.53298 0.70454,0.4264 1.52587,0.0982 0.82689,-0.3304 1.03802,-1.12269 0.21669,-0.7945 -0.22459,-1.89887 z m 1.98351,2.00049 q 0.63421,1.58717 0.23766,2.64018 -0.39436,1.05856 -1.84832,1.63956 -0.53831,0.21511 -1.04882,0.32261 -0.50832,0.11298 -1.02434,0.12613 l -0.39694,-0.99336 q 0.54708,0.0646 1.03207,0.006 0.48498,-0.0586 0.94004,-0.24047 1.00448,-0.40137 1.29329,-1.12814 0.29101,-0.72123 -0.13253,-1.78119 l -0.2018,-0.50502 q -0.0968,0.67581 -0.48204,1.14509 -0.38525,0.46929 -1.0734,0.74426 -1.14321,0.45681 -2.1906,-0.13506 -1.0474,-0.59187 -1.62172,-2.02923 -0.57656,-1.44288 -0.22546,-2.59356 0.35109,-1.15069 1.49431,-1.60749 0.68814,-0.27497 1.29071,-0.20041 0.60257,0.0746 1.13843,0.49758 l -0.37698,-0.94342 1.02112,-0.40801 2.17537,5.4441 z" />
    </g>
    <rect
       style="fill:none;fill-opacity:1;stroke:#000000;stroke-width:4.60114288;stroke-linecap:butt;stroke-linejoin:miter;stroke-miterlimit:4;stroke-dasharray:none;stroke-dashoffset:0;stroke-opacity:1"
       id="rect3773"
       width="169.86574"
       height="169.86574"
       x="-263.09296"
       y="747.14221"
       ry="0" />
    <text
       id="text3890"
       y="910.1521"
       x="379.51096"
       style="font-style:normal;font-variant:normal;font-weight:normal;font-stretch:normal;font-size:104.03812408px;line-height:1.25;font-family:monospace;-inkscape-font-specification:'monospace, Normal';font-variant-ligatures:normal;font-variant-caps:normal;font-variant-numeric:normal;font-feature-settings:normal;text-align:start;letter-spacing:0px;word-spacing:0px;writing-mode:lr-tb;text-anchor:start;fill:#000000;fill-opacity:1;stroke:none;stroke-width:2.60095334;"
       xml:space="preserve"
       transform="skewX(-14.127864)"><tspan
         style="fill:#000000;stroke-width:2.60095334;"
         y="910.1521"
         x="379.51096"
         id="tspan3888"
         sodipodi:role="line">!</tspan></text>
    <text
       xml:space="preserve"
       style="font-style:normal;font-variant:normal;font-weight:normal;font-stretch:normal;font-size:104.03812408px;line-height:1.25;font-family:monospace;-inkscape-font-specification:'monospace, Normal';font-variant-ligatures:normal;font-variant-caps:normal;font-variant-numeric:normal;font-feature-settings:normal;text-align:start;letter-spacing:0px;word-spacing:0px;writing-mode:lr-tb;text-anchor:start;fill:#000000;fill-opacity:1;stroke:none;stroke-width:2.60095334"
       x="118.85841"
       y="910.1521"
       id="text3894"><tspan
         sodipodi:role="line"
         id="tspan3892"
         x="118.85841"
         y="910.1521"
         style="fill:#000000;stroke-width:2.60095334">#</tspan></text>
    <rect
       ry="0"
       y="955.44574"
       x="42.93541"
       height="171.55922"
       width="171.55922"
       id="rect194"
       style="fill:#ffffff;fill-opacity:1;stroke:none;stroke-width:5.53677559;stroke-linecap:butt;stroke-linejoin:miter;stroke-miterlimit:4;stroke-dasharray:none;stroke-dashoffset:0;stroke-opacity:1"
       inkscape:export-xdpi="79.235664"
       inkscape:export-ydpi="79.235664"
       inkscape:export-filename="./argbash-docker.png" />
    <text
       id="text198"
       y="1050.1824"
       x="40.950443"
       style="font-style:normal;font-variant:normal;font-weight:normal;font-stretch:normal;font-size:155.31469727px;line-height:1.25;font-family:monospace;-inkscape-font-specification:'monospace, Normal';font-variant-ligatures:normal;font-variant-caps:normal;font-variant-numeric:normal;font-feature-settings:normal;text-align:start;letter-spacing:0px;word-spacing:0px;writing-mode:lr-tb;text-anchor:start;fill:#000000;fill-opacity:1;stroke:none;stroke-width:3.88286757"
       xml:space="preserve"
       inkscape:export-xdpi="79.235664"
       inkscape:export-ydpi="79.235664"
       inkscape:export-filename="./argbash-docker.png"><tspan
         style="fill:#000000;stroke-width:3.88286757"
         y="1050.1824"
         x="40.950443"
         id="tspan196"
         sodipodi:role="line">a</tspan></text>
    <rect
       style="opacity:1;fill:none;fill-opacity:1;stroke:#000000;stroke-width:4.60114288;stroke-linecap:butt;stroke-linejoin:miter;stroke-miterlimit:4;stroke-dasharray:none;stroke-dashoffset:0;stroke-opacity:1"
       id="rect200"
       width="169.86574"
       height="169.86574"
       x="43.782146"
       y="956.29254"
       ry="0"
       inkscape:export-xdpi="79.235664"
       inkscape:export-ydpi="79.235664"
       inkscape:export-filename="./argbash-docker.png" />
    <text
       transform="skewX(-14.127864)"
       xml:space="preserve"
       style="font-style:normal;font-variant:normal;font-weight:normal;font-stretch:normal;font-size:104.03812408px;line-height:1.25;font-family:monospace;-inkscape-font-specification:'monospace, Normal';font-variant-ligatures:normal;font-variant-caps:normal;font-variant-numeric:normal;font-feature-settings:normal;text-align:start;letter-spacing:0px;word-spacing:0px;writing-mode:lr-tb;text-anchor:start;fill:#000000;fill-opacity:1;stroke:none;stroke-width:2.60095334"
       x="432.15402"
       y="1119.3024"
       id="text204"
       inkscape:export-xdpi="79.235664"
       inkscape:export-ydpi="79.235664"
       inkscape:export-filename="./argbash-docker.png"><tspan
         sodipodi:role="line"
         id="tspan202"
         x="432.15402"
         y="1119.3024"
         style="fill:#000000;stroke-width:2.60095334">!</tspan></text>
    <text
       id="text208"
       y="1119.3024"
       x="118.85841"
       style="font-style:normal;font-variant:normal;font-weight:normal;font-stretch:normal;font-size:104.03812408px;line-height:1.25;font-family:monospace;-inkscape-font-specification:'monospace, Normal';font-variant-ligatures:normal;font-variant-caps:normal;font-variant-numeric:normal;font-feature-settings:normal;text-align:start;letter-spacing:0px;word-spacing:0px;writing-mode:lr-tb;text-anchor:start;fill:#000000;fill-opacity:1;stroke:none;stroke-width:2.60095334"
       xml:space="preserve"
       inkscape:export-xdpi="79.235664"
       inkscape:export-ydpi="79.235664"
       inkscape:export-filename="./argbash-docker.png"><tspan
         style="fill:#000000;stroke-width:2.60095334"
         y="1119.3024"
         x="118.85841"
         id="tspan206"
         sodipodi:role="line">#</tspan></text>
    <g
       transform="matrix(0.42736081,0,0,0.42736081,137.19519,973.9783)"
       id="surface923"
       inkscape:export-xdpi="79.235664"
       inkscape:export-ydpi="79.235664"
       inkscape:export-filename="./argbash-docker.png">
      <g
         style="clip-rule:nonzero"
         clip-path="url(#clip1)"
         id="g9">
        <path
           inkscape:connector-curvature="0"
           style="fill:#056ba3;fill-opacity:1;fill-rule:evenodd;stroke:none"
           d="m 86.234375,48.664062 h 15.742185 v -14.3125 H 86.234375 Z m -18.605469,0 h 15.742188 v -14.3125 H 67.628906 Z m -18.605468,0 h 15.742187 v -14.3125 H 49.023438 Z m -18.605469,0 h 15.742187 v -14.3125 H 30.417969 Z m -18.605469,0 h 15.742188 v -14.3125 H 11.8125 Z M 30.417969,31.488281 H 46.160156 V 17.179688 H 30.417969 Z m 18.605469,0 H 64.765625 V 17.179688 H 49.023438 Z m 18.605468,0 H 83.371094 V 17.179688 H 67.628906 Z m 0,-17.171875 H 83.371094 V 0.00390625 H 67.628906 Z m 81.656254,26.003906 c -3.4375,-2.300781 -11.33594,-3.144531 -17.41407,-1.996093 -0.78515,-5.726563 -3.97656,-10.691407 -9.78125,-15.179688 l -3.33593,-2.226562 -2.22657,3.339843 c -2.85156,4.300782 -4.27343,10.257813 -3.80859,15.96875 0.21094,2.007813 0.87109,5.601563 2.9375,8.761719 -2.06641,1.109375 -6.14844,2.640625 -11.53516,2.539063 H 0.589844 L 0.386719,52.71875 c -0.976563,5.738281 -0.953125,23.652344 10.675781,37.421875 8.839844,10.460935 22.09375,15.769535 39.394531,15.769535 37.5,0 65.242189,-17.261722 78.234379,-48.640629 5.10937,0.101563 16.10937,0.03125 21.76171,-10.765625 0.14454,-0.25 0.48438,-0.898437 1.47266,-2.941406 l 0.53906,-1.121094 -3.17968,-2.121094"
           id="path7" />
      </g>
    </g>
    <rect
       style="fill:#ffffff;fill-opacity:1;stroke:none;stroke-width:5.53677559;stroke-linecap:butt;stroke-linejoin:miter;stroke-miterlimit:4;stroke-dasharray:none;stroke-dashoffset:0;stroke-opacity:1"
       id="rect224"
       width="171.55922"
       height="171.55922"
       x="245.05396"
       y="955.44574"
       ry="0"
       inkscape:export-filename="./argbash-cli.png"
       inkscape:export-xdpi="79.235664"
       inkscape:export-ydpi="79.235664" />
    <text
       xml:space="preserve"
       style="font-style:normal;font-variant:normal;font-weight:normal;font-stretch:normal;font-size:155.31469727px;line-height:1.25;font-family:monospace;-inkscape-font-specification:'monospace, Normal';font-variant-ligatures:normal;font-variant-caps:normal;font-variant-numeric:normal;font-feature-settings:normal;text-align:start;letter-spacing:0px;word-spacing:0px;writing-mode:lr-tb;text-anchor:start;fill:#000000;fill-opacity:1;stroke:none;stroke-width:3.88286757"
       x="243.06898"
       y="1050.1824"
       id="text228"
       inkscape:export-filename="./argbash-cli.png"
       inkscape:export-xdpi="79.235664"
       inkscape:export-ydpi="79.235664"><tspan
         sodipodi:role="line"
         id="tspan226"
         x="243.06898"
         y="1050.1824"
         style="fill:#000000;stroke-width:3.88286757">a</tspan></text>
    <rect
       ry="0"
       y="956.29254"
       x="245.90068"
       height="169.86574"
       width="169.86574"
       id="rect230"
       style="opacity:1;fill:none;fill-opacity:1;stroke:#000000;stroke-width:4.60114288;stroke-linecap:butt;stroke-linejoin:miter;stroke-miterlimit:4;stroke-dasharray:none;stroke-dashoffset:0;stroke-opacity:1"
       inkscape:export-filename="./argbash-cli.png"
       inkscape:export-xdpi="79.235664"
       inkscape:export-ydpi="79.235664" />
    <text
       id="text234"
       y="1119.3024"
       x="634.27258"
       style="font-style:normal;font-variant:normal;font-weight:normal;font-stretch:normal;font-size:104.03812408px;line-height:1.25;font-family:monospace;-inkscape-font-specification:'monospace, Normal';font-variant-ligatures:normal;font-variant-caps:normal;font-variant-numeric:normal;font-feature-settings:normal;text-align:start;letter-spacing:0px;word-spacing:0px;writing-mode:lr-tb;text-anchor:start;fill:#000000;fill-opacity:1;stroke:none;stroke-width:2.60095334"
       xml:space="preserve"
       transform="skewX(-14.127864)"
       inkscape:export-filename="./argbash-cli.png"
       inkscape:export-xdpi="79.235664"
       inkscape:export-ydpi="79.235664"><tspan
         style="fill:#000000;stroke-width:2.60095334"
         y="1119.3024"
         x="634.27258"
         id="tspan232"
         sodipodi:role="line">!</tspan></text>
    <text
       xml:space="preserve"
       style="font-style:normal;font-variant:normal;font-weight:normal;font-stretch:normal;font-size:104.03812408px;line-height:1.25;font-family:monospace;-inkscape-font-specification:'monospace, Normal';font-variant-ligatures:normal;font-variant-caps:normal;font-variant-numeric:normal;font-feature-settings:normal;text-align:start;letter-spacing:0px;word-spacing:0px;writing-mode:lr-tb;text-anchor:start;fill:#000000;fill-opacity:1;stroke:none;stroke-width:2.60095334"
       x="320.97696"
       y="1119.3024"
       id="text238"
       inkscape:export-filename="./argbash-cli.png"
       inkscape:export-xdpi="79.235664"
       inkscape:export-ydpi="79.235664"><tspan
         sodipodi:role="line"
         id="tspan236"
         x="320.97696"
         y="1119.3024"
         style="fill:#000000;stroke-width:2.60095334">#</tspan></text>
    <text
       id="text261"
       y="1011.1716"
       x="339.9248"
       style="font-style:normal;font-variant:normal;font-weight:bold;font-stretch:normal;font-size:47.75866699px;line-height:1.25;font-family:monospace;-inkscape-font-specification:'monospace, Bold';font-variant-ligatures:normal;font-variant-caps:normal;font-variant-numeric:normal;font-feature-settings:normal;text-align:start;letter-spacing:0px;word-spacing:0px;writing-mode:lr;text-anchor:start;fill:#000000;fill-opacity:1;stroke:none;stroke-width:1.19396806;"
       xml:space="preserve"
       inkscape:export-filename="./argbash-cli.png"
       inkscape:export-xdpi="79.235664"
       inkscape:export-ydpi="79.235664"><tspan
         style="fill:#000000;stroke-width:1.19396806;-inkscape-font-specification:'monospace, Bold';font-family:monospace;font-weight:bold;font-style:normal;font-stretch:normal;font-variant:normal;font-size:47.75866699px;text-anchor:start;text-align:start;writing-mode:lr;font-variant-ligatures:normal;font-variant-caps:normal;font-variant-numeric:normal;font-feature-settings:normal;"
         y="1011.1716"
         x="339.9248"
         id="tspan259"
         sodipodi:role="line">$<tspan
   style="fill:#008000"
   id="tspan263">_</tspan></tspan></text>
    <rect
       style="fill:#ffffff;fill-opacity:1;stroke:none;stroke-width:5.53677559;stroke-linecap:butt;stroke-linejoin:miter;stroke-miterlimit:4;stroke-dasharray:none;stroke-dashoffset:0;stroke-opacity:1"
       id="rect265"
       width="171.55922"
       height="171.55922"
       x="-159.18314"
       y="955.44574"
       ry="0"
       inkscape:export-filename="./argbash-web.png"
       inkscape:export-xdpi="79.235664"
       inkscape:export-ydpi="79.235664" />
    <text
       xml:space="preserve"
       style="font-style:normal;font-variant:normal;font-weight:normal;font-stretch:normal;font-size:155.31469727px;line-height:1.25;font-family:monospace;-inkscape-font-specification:'monospace, Normal';font-variant-ligatures:normal;font-variant-caps:normal;font-variant-numeric:normal;font-feature-settings:normal;text-align:start;letter-spacing:0px;word-spacing:0px;writing-mode:lr-tb;text-anchor:start;fill:#000000;fill-opacity:1;stroke:none;stroke-width:3.88286757"
       x="-161.16809"
       y="1050.1824"
       id="text269"
       inkscape:export-filename="./argbash-web.png"
       inkscape:export-xdpi="79.235664"
       inkscape:export-ydpi="79.235664"><tspan
         sodipodi:role="line"
         id="tspan267"
         x="-161.16809"
         y="1050.1824"
         style="fill:#000000;stroke-width:3.88286757">a</tspan></text>
    <rect
       ry="0"
       y="956.29254"
       x="-158.3364"
       height="169.86574"
       width="169.86574"
       id="rect271"
       style="opacity:1;fill:none;fill-opacity:1;stroke:#000000;stroke-width:4.60114288;stroke-linecap:butt;stroke-linejoin:miter;stroke-miterlimit:4;stroke-dasharray:none;stroke-dashoffset:0;stroke-opacity:1"
       inkscape:export-filename="./argbash-web.png"
       inkscape:export-xdpi="79.235664"
       inkscape:export-ydpi="79.235664" />
    <text
       id="text275"
       y="1119.3024"
       x="230.03548"
       style="font-style:normal;font-variant:normal;font-weight:normal;font-stretch:normal;font-size:104.03812408px;line-height:1.25;font-family:monospace;-inkscape-font-specification:'monospace, Normal';font-variant-ligatures:normal;font-variant-caps:normal;font-variant-numeric:normal;font-feature-settings:normal;text-align:start;letter-spacing:0px;word-spacing:0px;writing-mode:lr-tb;text-anchor:start;fill:#000000;fill-opacity:1;stroke:none;stroke-width:2.60095334"
       xml:space="preserve"
       transform="skewX(-14.127864)"
       inkscape:export-filename="./argbash-web.png"
       inkscape:export-xdpi="79.235664"
       inkscape:export-ydpi="79.235664"><tspan
         style="fill:#000000;stroke-width:2.60095334"
         y="1119.3024"
         x="230.03548"
         id="tspan273"
         sodipodi:role="line">!</tspan></text>
    <text
       xml:space="preserve"
       style="font-style:normal;font-variant:normal;font-weight:normal;font-stretch:normal;font-size:104.03812408px;line-height:1.25;font-family:monospace;-inkscape-font-specification:'monospace, Normal';font-variant-ligatures:normal;font-variant-caps:normal;font-variant-numeric:normal;font-feature-settings:normal;text-align:start;letter-spacing:0px;word-spacing:0px;writing-mode:lr-tb;text-anchor:start;fill:#000000;fill-opacity:1;stroke:none;stroke-width:2.60095334"
       x="-83.260124"
       y="1119.3024"
       id="text279"
       inkscape:export-filename="./argbash-web.png"
       inkscape:export-xdpi="79.235664"
       inkscape:export-ydpi="79.235664"><tspan
         sodipodi:role="line"
         id="tspan277"
         x="-83.260124"
         y="1119.3024"
         style="fill:#000000;stroke-width:2.60095334">#</tspan></text>
    <path
       id="path445"
       d="m -32.446263,972.81919 a 25.633888,25.633888 0 1 0 0.2629,0 z m 0.13145,0 v 51.26781 m 25.63389,-25.63395 h -51.26778 m 5.78406,-15.77473 a 34.178518,34.178518 0 0 0 39.69966,0 m 0,31.54948 a 34.178518,34.178518 0 0 0 -39.69966,0 m 17.87799,-40.75134 a 32.863959,32.863959 0 0 0 0,50.21614 m 3.94368,0 a 32.863959,32.863959 0 0 0 0,-50.21614"
       inkscape:connector-curvature="0"
       style="fill:none;stroke:#660066;stroke-width:2.62911677;stroke-opacity:1"
       inkscape:export-filename="./argbash-web.png"
       inkscape:export-xdpi="79.235664"
       inkscape:export-ydpi="79.235664" />
  </g>
</svg>
